<svg width="34" height="34" viewBox="0 0 34 34" fill="none" xmlns="http://www.w3.org/2000/svg">
<path d="M8.91675 29.75C8.91675 30.3023 9.36446 30.75 9.91675 30.75C10.469 30.75 10.9167 30.3023 10.9167 29.75H8.91675ZM10.9167 4.25C10.9167 3.69772 10.469 3.25 9.91675 3.25C9.36446 3.25 8.91675 3.69772 8.91675 4.25H10.9167ZM21.6667 29.75C21.6667 30.3023 22.1145 30.75 22.6667 30.75C23.219 30.75 23.6667 30.3023 23.6667 29.75H21.6667ZM22.6667 4.25V3.25C22.1145 3.25 21.6667 3.69772 21.6667 4.25H22.6667ZM15.1667 4.25C15.1667 3.69772 14.719 3.25 14.1667 3.25C13.6145 3.25 13.1667 3.69772 13.1667 4.25H15.1667ZM6.66675 4.25C6.66675 3.69772 6.21903 3.25 5.66675 3.25C5.11446 3.25 4.66675 3.69772 4.66675 4.25H6.66675ZM22.6667 17.4167C22.1145 17.4167 21.6667 17.8644 21.6667 18.4167C21.6667 18.969 22.1145 19.4167 22.6667 19.4167V17.4167ZM10.9167 29.75V4.25H8.91675V29.75H10.9167ZM23.6667 29.75V4.25H21.6667V29.75H23.6667ZM13.1667 4.25V11.3333H15.1667V4.25H13.1667ZM6.66675 11.3333V4.25H4.66675V11.3333H6.66675ZM9.91675 14.5833C8.12182 14.5833 6.66675 13.1283 6.66675 11.3333H4.66675C4.66675 14.2328 7.01725 16.5833 9.91675 16.5833V14.5833ZM13.1667 11.3333C13.1667 13.1283 11.7117 14.5833 9.91675 14.5833V16.5833C12.8162 16.5833 15.1667 14.2328 15.1667 11.3333H13.1667ZM22.6667 19.4167C26.3486 19.4167 29.3334 16.4319 29.3334 12.75H27.3334C27.3334 15.3273 25.2441 17.4167 22.6667 17.4167V19.4167ZM22.6667 5.25C25.2441 5.25 27.3334 7.33934 27.3334 9.91667H29.3334C29.3334 6.23477 26.3486 3.25 22.6667 3.25V5.25ZM27.3334 9.91667V12.75H29.3334V9.91667H27.3334Z" fill="#131A29"/>
</svg>
