<svg width="34" height="34" viewBox="0 0 34 34" fill="none" xmlns="http://www.w3.org/2000/svg">
<path d="M15.9295 5.91313C16.2575 4.96975 16.4214 4.49805 16.6639 4.36733C16.8737 4.25419 17.1264 4.25419 17.3362 4.36733C17.5787 4.49805 17.7426 4.96975 18.0706 5.91313L20.2384 12.1498C20.3318 12.4183 20.3784 12.5526 20.4625 12.6526C20.5368 12.7409 20.6315 12.8097 20.7385 12.8531C20.8596 12.9022 21.0017 12.905 21.2859 12.9108L27.8872 13.0454C28.8858 13.0657 29.385 13.0759 29.5843 13.2661C29.7567 13.4307 29.8348 13.671 29.7921 13.9055C29.7427 14.1765 29.3447 14.4782 28.5488 15.0816L23.2873 19.0706C23.0608 19.2423 22.9475 19.3282 22.8784 19.4391C22.8174 19.537 22.7812 19.6484 22.773 19.7635C22.7637 19.8938 22.8049 20.0299 22.8872 20.3019L24.7992 26.6218C25.0884 27.5777 25.233 28.0557 25.1137 28.304C25.0105 28.5189 24.806 28.6674 24.5698 28.6992C24.2968 28.7359 23.8869 28.4507 23.0671 27.8802L17.6474 24.1089C17.4141 23.9465 17.2974 23.8653 17.1706 23.8339C17.0586 23.8061 16.9415 23.8061 16.8295 23.8339C16.7027 23.8653 16.586 23.9465 16.3527 24.1089L10.933 27.8802C10.1132 28.4507 9.70331 28.7359 9.43032 28.6992C9.19406 28.6674 8.98964 28.5189 8.88638 28.304C8.76707 28.0557 8.91168 27.5777 9.20089 26.6218L11.1129 20.3019C11.1952 20.0299 11.2364 19.8938 11.2271 19.7635C11.2189 19.6484 11.1827 19.537 11.1217 19.4391C11.0526 19.3282 10.9393 19.2423 10.7128 19.0706L5.45126 15.0816C4.65538 14.4782 4.25744 14.1765 4.20803 13.9055C4.16527 13.671 4.24335 13.4307 4.4158 13.2661C4.61505 13.0759 5.11432 13.0657 6.11286 13.0454L12.7142 12.9108C12.9984 12.905 13.1405 12.9022 13.2616 12.8531C13.3686 12.8097 13.4633 12.7409 13.5376 12.6526C13.6217 12.5526 13.6683 12.4183 13.7617 12.1498L15.9295 5.91313Z" stroke="#131A29" stroke-width="2" stroke-linecap="round" stroke-linejoin="round"/>
</svg>
