<svg width="34" height="34" viewBox="0 0 34 34" fill="none" xmlns="http://www.w3.org/2000/svg">
<path d="M4.92941 7.7664C4.52416 7.39118 3.89147 7.41551 3.51624 7.82075C3.14101 8.226 3.16535 8.8587 3.57059 9.23392L4.92941 7.7664ZM29.0706 9.23392C29.4758 9.60915 30.1085 9.58482 30.4838 9.17957C30.859 8.77433 30.8347 8.14163 30.4294 7.7664L29.0706 9.23392ZM4.92941 24.7664C4.52416 24.3912 3.89147 24.4155 3.51624 24.8208C3.14101 25.226 3.16535 25.8587 3.57059 26.2339L4.92941 24.7664ZM29.0706 26.2339C29.4758 26.6092 30.1085 26.5848 30.4838 26.1796C30.859 25.7743 30.8347 25.1416 30.4294 24.7664L29.0706 26.2339ZM4.92941 16.2664C4.52416 15.8912 3.89147 15.9155 3.51624 16.3208C3.14101 16.726 3.16535 17.3587 3.57059 17.7339L4.92941 16.2664ZM29.0706 17.7339C29.4758 18.1092 30.1085 18.0848 30.4838 17.6796C30.859 17.2743 30.8347 16.6416 30.4294 16.2664L29.0706 17.7339ZM3.57059 9.23392C3.94199 9.57781 4.41254 10.02 5.03553 10.3549C5.68325 10.7031 6.45292 10.9168 7.4375 10.9168V8.91683C6.76458 8.91683 6.323 8.77636 5.9826 8.59335C5.61746 8.39704 5.32301 8.13085 4.92941 7.7664L3.57059 9.23392ZM7.4375 10.9168C9.42628 10.9168 10.4665 9.97897 11.2894 9.24757C12.0603 8.5623 12.6138 8.0835 13.8125 8.0835V6.0835C11.8237 6.0835 10.7835 7.02136 9.96064 7.75275C9.18971 8.43802 8.63622 8.91683 7.4375 8.91683V10.9168ZM13.8125 8.0835C14.4854 8.0835 14.927 8.22397 15.2674 8.40698C15.6325 8.60329 15.927 8.86948 16.3206 9.23392L17.6794 7.7664C17.308 7.42251 16.8375 6.98037 16.2145 6.64543C15.5667 6.29719 14.7971 6.0835 13.8125 6.0835V8.0835ZM16.3206 9.23392C16.692 9.57781 17.1625 10.02 17.7855 10.3549C18.4333 10.7031 19.2029 10.9168 20.1875 10.9168V8.91683C19.5146 8.91683 19.073 8.77636 18.7326 8.59335C18.3675 8.39704 18.073 8.13085 17.6794 7.7664L16.3206 9.23392ZM20.1875 10.9168C22.1763 10.9168 23.2165 9.97897 24.0394 9.24757C24.8103 8.5623 25.3638 8.0835 26.5625 8.0835V6.0835C24.5737 6.0835 23.5335 7.02136 22.7106 7.75275C21.9397 8.43802 21.3862 8.91683 20.1875 8.91683V10.9168ZM26.5625 8.0835C27.2354 8.0835 27.677 8.22397 28.0174 8.40698C28.3825 8.60329 28.677 8.86948 29.0706 9.23392L30.4294 7.7664C30.058 7.42251 29.5875 6.98037 28.9645 6.64543C28.3167 6.29719 27.5471 6.0835 26.5625 6.0835V8.0835ZM3.57059 26.2339C3.94199 26.5778 4.41254 27.02 5.03553 27.3549C5.68325 27.7031 6.45292 27.9168 7.4375 27.9168V25.9168C6.76458 25.9168 6.323 25.7764 5.9826 25.5933C5.61746 25.397 5.32301 25.1308 4.92941 24.7664L3.57059 26.2339ZM7.4375 27.9168C9.42628 27.9168 10.4665 26.979 11.2894 26.2476C12.0603 25.5623 12.6138 25.0835 13.8125 25.0835V23.0835C11.8237 23.0835 10.7835 24.0214 9.96064 24.7528C9.18971 25.438 8.63622 25.9168 7.4375 25.9168V27.9168ZM13.8125 25.0835C14.4854 25.0835 14.927 25.224 15.2674 25.407C15.6325 25.6033 15.927 25.8695 16.3206 26.2339L17.6794 24.7664C17.308 24.4225 16.8375 23.9804 16.2145 23.6454C15.5667 23.2972 14.7971 23.0835 13.8125 23.0835V25.0835ZM16.3206 26.2339C16.692 26.5778 17.1625 27.02 17.7855 27.3549C18.4333 27.7031 19.2029 27.9168 20.1875 27.9168V25.9168C19.5146 25.9168 19.073 25.7764 18.7326 25.5933C18.3675 25.397 18.073 25.1308 17.6794 24.7664L16.3206 26.2339ZM20.1875 27.9168C22.1763 27.9168 23.2165 26.979 24.0394 26.2476C24.8103 25.5623 25.3638 25.0835 26.5625 25.0835V23.0835C24.5737 23.0835 23.5335 24.0214 22.7106 24.7528C21.9397 25.438 21.3862 25.9168 20.1875 25.9168V27.9168ZM26.5625 25.0835C27.2354 25.0835 27.677 25.224 28.0174 25.407C28.3825 25.6033 28.677 25.8695 29.0706 26.2339L30.4294 24.7664C30.058 24.4225 29.5875 23.9804 28.9645 23.6454C28.3167 23.2972 27.5471 23.0835 26.5625 23.0835V25.0835ZM3.57059 17.7339C3.94199 18.0778 4.41254 18.52 5.03553 18.8549C5.68325 19.2031 6.45292 19.4168 7.4375 19.4168V17.4168C6.76458 17.4168 6.323 17.2764 5.9826 17.0933C5.61746 16.897 5.32301 16.6308 4.92941 16.2664L3.57059 17.7339ZM7.4375 19.4168C9.42628 19.4168 10.4665 18.479 11.2894 17.7476C12.0603 17.0623 12.6138 16.5835 13.8125 16.5835V14.5835C11.8237 14.5835 10.7835 15.5214 9.96064 16.2528C9.18971 16.938 8.63622 17.4168 7.4375 17.4168V19.4168ZM13.8125 16.5835C14.4854 16.5835 14.927 16.724 15.2674 16.907C15.6325 17.1033 15.927 17.3695 16.3206 17.7339L17.6794 16.2664C17.308 15.9225 16.8375 15.4804 16.2145 15.1454C15.5667 14.7972 14.7971 14.5835 13.8125 14.5835V16.5835ZM16.3206 17.7339C16.692 18.0778 17.1625 18.52 17.7855 18.8549C18.4333 19.2031 19.2029 19.4168 20.1875 19.4168V17.4168C19.5146 17.4168 19.073 17.2764 18.7326 17.0933C18.3675 16.897 18.073 16.6308 17.6794 16.2664L16.3206 17.7339ZM20.1875 19.4168C22.1763 19.4168 23.2165 18.479 24.0394 17.7476C24.8103 17.0623 25.3638 16.5835 26.5625 16.5835V14.5835C24.5737 14.5835 23.5335 15.5214 22.7106 16.2528C21.9397 16.938 21.3862 17.4168 20.1875 17.4168V19.4168ZM26.5625 16.5835C27.2354 16.5835 27.677 16.724 28.0174 16.907C28.3825 17.1033 28.677 17.3695 29.0706 17.7339L30.4294 16.2664C30.058 15.9225 29.5875 15.4804 28.9645 15.1454C28.3167 14.7972 27.5471 14.5835 26.5625 14.5835V16.5835Z" fill="#131A29"/>
</svg>
